<svg width="32" height="32" viewBox="0 0 32 32" fill="none" xmlns="http://www.w3.org/2000/svg">
<path d="M22.3232 20.3135L21.5143 21.1256C21.5143 21.1256 19.5889 23.0545 14.3356 17.7875C9.08235 12.5205 11.0077 10.5915 11.0077 10.5915L11.5161 10.0788C12.773 8.82025 12.8921 6.79805 11.7952 5.32084L9.55523 2.30368C8.19702 0.475089 5.57482 0.233071 4.01927 1.79275L1.22818 4.58941C0.458408 5.36387 -0.0571445 6.36421 0.0050773 7.47571C0.165076 10.3208 1.44151 16.4394 8.55969 23.578C16.1099 31.1469 23.1943 31.4481 26.0902 31.1756C27.0076 31.0896 27.804 30.6199 28.4458 29.9745L30.9702 27.4431C32.6769 25.7347 32.1969 22.8036 30.0138 21.6078L26.6182 19.7452C25.1854 18.9599 23.4431 19.1912 22.3232 20.3135Z" fill="#EFEFF1"/>
</svg>
