<svg width="25" height="25" viewBox="0 0 25 25" fill="none" xmlns="http://www.w3.org/2000/svg">
<path d="M5.21875 12.5C5.21875 12.2099 5.33398 11.9317 5.5391 11.7266C5.74422 11.5214 6.02242 11.4062 6.3125 11.4062H11.4065V6.31226C11.4065 6.02218 11.5217 5.74398 11.7268 5.53886C11.9319 5.33374 12.2101 5.21851 12.5002 5.21851C12.7903 5.21851 13.0685 5.33374 13.2736 5.53886C13.4787 5.74398 13.594 6.02218 13.594 6.31226V11.4062H18.6879C18.978 11.4062 19.2562 11.5214 19.4613 11.7266C19.6664 11.9317 19.7817 12.2099 19.7817 12.5C19.7817 12.79 19.6664 13.0682 19.4613 13.2734C19.2562 13.4785 18.978 13.5937 18.6879 13.5937H13.594V18.6877C13.594 18.9778 13.4787 19.256 13.2736 19.4611C13.0685 19.6662 12.7903 19.7814 12.5002 19.7814C12.2101 19.7814 11.9319 19.6662 11.7268 19.4611C11.5217 19.256 11.4065 18.9778 11.4065 18.6877V13.5937H6.3125C6.02242 13.5937 5.74422 13.4785 5.5391 13.2734C5.33398 13.0682 5.21875 12.79 5.21875 12.5Z" fill="black"/>
<path fill-rule="evenodd" clip-rule="evenodd" d="M5.67001 0.49653C10.209 -0.00665588 14.7897 -0.00665588 19.3288 0.49653C21.9931 0.79403 24.1442 2.89257 24.4563 5.57153C24.9958 10.1755 24.9958 14.8261 24.4563 19.4301C24.1427 22.109 21.9917 24.2061 19.3288 24.5051C14.7897 25.0083 10.209 25.0083 5.67001 24.5051C3.00563 24.2061 0.854592 22.109 0.542509 19.4301C0.00405967 14.8262 0.00405967 10.1754 0.542509 5.57153C0.854592 2.89257 3.00709 0.79403 5.67001 0.49653ZM19.0867 2.66945C14.7086 2.18416 10.2902 2.18416 5.91209 2.66945C5.10161 2.75936 4.34511 3.11989 3.76481 3.69278C3.18451 4.26568 2.81429 5.01748 2.71397 5.82674C2.19531 10.2615 2.19531 14.7416 2.71397 19.1763C2.81459 19.9853 3.18495 20.7368 3.76522 21.3094C4.3455 21.882 5.10183 22.2423 5.91209 22.3322C10.2535 22.8163 14.7452 22.8163 19.0867 22.3322C19.8967 22.242 20.6527 21.8815 21.2327 21.309C21.8126 20.7364 22.1828 19.9851 22.2833 19.1763C22.802 14.7416 22.802 10.2615 22.2833 5.82674C22.1825 5.01823 21.8122 4.26727 21.2322 3.69498C20.6523 3.12269 19.8965 2.76245 19.0867 2.67236V2.66945Z" fill="black"/>
</svg>
