<svg width="20" height="20" viewBox="0 0 20 20" fill="none" xmlns="http://www.w3.org/2000/svg">
<g clip-path="url(#clip0_237_468)">
<path d="M1.66797 18.332C1.66797 19.25 2.41406 20 3.33594 20H16.668C17.5859 20 18.3359 19.2539 18.3359 18.332V7.5H1.66797V18.332ZM14.168 10H15.8359V17.5H14.168V10ZM9.16797 10H10.8359V17.5H9.16797V10ZM4.16797 10H5.83594V17.5H4.16797V10ZM19.168 3.33203H14.168V1.66797C14.168 0.746094 13.418 0 12.5 0H7.5C6.58203 0 5.83203 0.746094 5.83203 1.66797V3.33594H0.832031C0.371094 3.33203 0 3.70703 0 4.16797V5C0 5.46094 0.371094 5.83203 0.832031 5.83203H19.1641C19.625 5.83203 19.9961 5.46094 19.9961 5V4.16797C20 3.70703 19.6289 3.33203 19.168 3.33203ZM12.5 3.33203H7.5V1.66797H12.5V3.33203Z" fill="#EFEFF1"/>
</g>
<defs>
<clipPath id="clip0_237_468">
<rect width="20" height="20" fill="white"/>
</clipPath>
</defs>
</svg>
