<svg width="24" height="24" viewBox="0 0 24 24" fill="none" xmlns="http://www.w3.org/2000/svg">
<path d="M22.5007 12.0001C22.1912 12.0001 21.8945 12.123 21.6757 12.3418C21.4569 12.5606 21.334 12.8573 21.334 13.1668V20.1668C21.334 20.4762 21.2111 20.7729 20.9923 20.9917C20.7735 21.2105 20.4767 21.3334 20.1673 21.3334H3.83398C3.52456 21.3334 3.22782 21.2105 3.00903 20.9917C2.79023 20.7729 2.66732 20.4762 2.66732 20.1668V3.83342C2.66732 3.52401 2.79023 3.22726 3.00903 3.00847C3.22782 2.78967 3.52456 2.66676 3.83398 2.66676H10.834C11.1434 2.66676 11.4401 2.54384 11.6589 2.32505C11.8777 2.10626 12.0007 1.80951 12.0007 1.50009C12.0007 1.19067 11.8777 0.893926 11.6589 0.675134C11.4401 0.456341 11.1434 0.333425 10.834 0.333425H3.83398C2.90573 0.333425 2.01549 0.702174 1.35911 1.35855C0.702733 2.01493 0.333984 2.90517 0.333984 3.83342V20.1668C0.333984 21.095 0.702733 21.9853 1.35911 22.6416C2.01549 23.298 2.90573 23.6668 3.83398 23.6668H20.1673C21.0956 23.6668 21.9858 23.298 22.6422 22.6416C23.2986 21.9853 23.6673 21.095 23.6673 20.1668V13.1668C23.6673 12.8573 23.5444 12.5606 23.3256 12.3418C23.1068 12.123 22.8101 12.0001 22.5007 12.0001ZM5.00065 12.8868V17.8334C5.00065 18.1428 5.12357 18.4396 5.34236 18.6584C5.56115 18.8772 5.8579 19.0001 6.16732 19.0001H11.114C11.2675 19.001 11.4197 18.9715 11.5619 18.9135C11.704 18.8554 11.8333 18.7699 11.9423 18.6618L20.0157 10.5768L23.329 7.33342C23.4383 7.22497 23.5251 7.09593 23.5844 6.95376C23.6436 6.81159 23.6741 6.65911 23.6741 6.50509C23.6741 6.35108 23.6436 6.19859 23.5844 6.05642C23.5251 5.91425 23.4383 5.78521 23.329 5.67676L18.3823 0.671758C18.2739 0.562408 18.1448 0.475615 18.0027 0.416385C17.8605 0.357155 17.708 0.32666 17.554 0.32666C17.4 0.32666 17.2475 0.357155 17.1053 0.416385C16.9631 0.475615 16.8341 0.562408 16.7256 0.671758L13.4356 3.97342L5.33898 12.0584C5.23086 12.1674 5.14531 12.2967 5.08725 12.4389C5.02919 12.581 4.99976 12.7332 5.00065 12.8868ZM17.554 3.14509L20.8556 6.44676L19.199 8.10342L15.8973 4.80176L17.554 3.14509ZM7.33398 13.3651L14.2523 6.44676L17.554 9.74842L10.6357 16.6668H7.33398V13.3651Z" fill="black"/>
</svg>
