<svg width="24" height="24" viewBox="0 0 24 24" fill="none" xmlns="http://www.w3.org/2000/svg">
<path d="M22.1667 11.6734C21.8572 11.6734 21.5605 11.7963 21.3417 12.0151C21.1229 12.2339 21 12.5307 21 12.8401V19.8401C21 20.1495 20.8771 20.4463 20.6583 20.6651C20.4395 20.8838 20.1428 21.0068 19.8333 21.0068H3.5C3.19058 21.0068 2.89383 20.8838 2.67504 20.6651C2.45625 20.4463 2.33333 20.1495 2.33333 19.8401V3.50676C2.33333 3.19735 2.45625 2.9006 2.67504 2.68181C2.89383 2.46301 3.19058 2.3401 3.5 2.3401H10.5C10.8094 2.3401 11.1062 2.21718 11.325 1.99839C11.5437 1.7796 11.6667 1.48285 11.6667 1.17343C11.6667 0.864012 11.5437 0.567266 11.325 0.348473C11.1062 0.129681 10.8094 0.00676473 10.5 0.00676473H3.5C2.57174 0.00676473 1.6815 0.375514 1.02513 1.03189C0.368749 1.68827 0 2.57851 0 3.50676V19.8401C0 20.7684 0.368749 21.6586 1.02513 22.315C1.6815 22.9713 2.57174 23.3401 3.5 23.3401H19.8333C20.7616 23.3401 21.6518 22.9713 22.3082 22.315C22.9646 21.6586 23.3333 20.7684 23.3333 19.8401V12.8401C23.3333 12.5307 23.2104 12.2339 22.9916 12.0151C22.7728 11.7963 22.4761 11.6734 22.1667 11.6734ZM4.66667 12.5601V17.5068C4.66667 17.8162 4.78958 18.1129 5.00838 18.3317C5.22717 18.5505 5.52391 18.6734 5.83333 18.6734H10.78C10.9335 18.6743 11.0857 18.6449 11.2279 18.5868C11.37 18.5288 11.4993 18.4432 11.6083 18.3351L19.6817 10.2501L22.995 7.00676C23.1043 6.89831 23.1911 6.76927 23.2504 6.6271C23.3096 6.48493 23.3401 6.33244 23.3401 6.17843C23.3401 6.02442 23.3096 5.87193 23.2504 5.72976C23.1911 5.58759 23.1043 5.45855 22.995 5.3501L18.0483 0.345098C17.9399 0.235748 17.8108 0.148955 17.6687 0.0897247C17.5265 0.0304946 17.374 0 17.22 0C17.066 0 16.9135 0.0304946 16.7713 0.0897247C16.6292 0.148955 16.5001 0.235748 16.3917 0.345098L13.1017 3.64676L5.005 11.7318C4.89687 11.8408 4.81133 11.9701 4.75327 12.1122C4.69521 12.2544 4.66578 12.4066 4.66667 12.5601ZM17.22 2.81843L20.5217 6.1201L18.865 7.77676L15.5633 4.4751L17.22 2.81843ZM7 13.0384L13.9183 6.1201L17.22 9.42176L10.3017 16.3401H7V13.0384Z" fill="#EFEFF1"/>
</svg>
