<svg width="40" height="32" viewBox="0 0 40 32" fill="none" xmlns="http://www.w3.org/2000/svg">
<path fill-rule="evenodd" clip-rule="evenodd" d="M9.045 2.75287C5.4625 3.6095 2.5 6.32706 2.5 11.068C2.5 17.3795 7.9225 23.5555 20 29.4017C32.0775 23.5555 37.5 17.3795 37.5 11.068C37.5 6.32952 34.5375 3.6095 30.955 2.75287C27.2775 1.87164 23.15 3.00641 21.0075 5.87905C20.8914 6.03475 20.7397 6.16134 20.5646 6.24859C20.3896 6.33585 20.1962 6.38132 20 6.38132C19.8038 6.38132 19.6104 6.33585 19.4354 6.24859C19.2603 6.16134 19.1086 6.03475 18.9925 5.87905C16.85 3.00641 12.7225 1.87164 9.045 2.75287ZM20 3.2698C17.025 0.333161 12.42 -0.589924 8.455 0.357777C3.9125 1.44825 0 5.0372 0 11.068C0 19.0435 6.915 25.9161 19.4575 31.878C19.6267 31.9583 19.8122 32 20 32C20.1878 32 20.3733 31.9583 20.5425 31.878C33.085 25.9161 40 19.0459 40 11.068C40 5.0372 36.0875 1.44825 31.545 0.360238C27.58 -0.587462 22.9775 0.338085 20 3.2698Z" fill="#151519"/>
</svg>
